<svg width="369" height="200" viewBox="0 0 369 200" fill="none" xmlns="http://www.w3.org/2000/svg">
<g filter="url(#filter0_d_6_37)">
<path d="M30.1306 89.9374C62.6306 88.9373 -10.3694 83.4376 30.1306 39.9374C70.6306 -3.56273 30.1306 0.437266 62.6306 7.43742C95.1306 14.4376 103.631 -10.0627 133.131 7.43742C162.631 24.9376 177.631 -1.56241 190.131 7.43742C190.131 7.43742 200.131 26.9374 216.131 33.4374C216.131 33.4374 260.631 45.9374 244.131 33.4374C227.631 20.9374 273.13 13.4376 287.13 33.4374C301.131 53.4373 298.131 7.43742 313.13 7.43742C328.13 7.43742 314.202 43.8306 351.63 45.9374C389.059 48.0443 330.63 88.9376 351.63 81.9374C372.195 75.0827 337.142 122.405 350.701 123.435C351.209 123.192 351.63 123.437 351.63 123.437C351.298 123.458 350.989 123.457 350.701 123.435C349.293 124.111 347.221 128.552 351.63 152.438C357.631 184.938 325.13 173.938 319.13 184.938C313.13 195.937 294.63 167.438 278.63 184.938C262.631 202.437 225.631 173.938 216.131 184.938C206.631 195.937 157.131 161.438 145.131 184.938C133.131 208.437 77.6306 158.438 62.6306 184.938C47.6306 211.437 -7.8694 139.937 19.1306 141.438C46.1306 142.938 30.1306 130.437 30.1306 130.437C-4.3694 123.437 -2.3694 90.9376 30.1306 89.9374Z" fill="#FFFCFC"/>
<path d="M30.1306 133.938V130.437M30.1306 130.437C-4.3694 123.437 -2.3694 90.9376 30.1306 89.9374C62.6306 88.9373 -10.3694 83.4376 30.1306 39.9374C70.6306 -3.56273 30.1306 0.437266 62.6306 7.43742C95.1306 14.4376 103.631 -10.0627 133.131 7.43742C162.631 24.9376 177.631 -1.56241 190.131 7.43742C190.131 7.43742 200.131 26.9374 216.131 33.4374C216.131 33.4374 260.631 45.9374 244.131 33.4374C227.631 20.9374 273.13 13.4376 287.13 33.4374C301.131 53.4373 298.131 7.43742 313.13 7.43742C328.13 7.43742 314.202 43.8306 351.63 45.9374C389.059 48.0443 330.63 88.9376 351.63 81.9374C372.631 74.9373 335.63 124.438 351.63 123.437C351.63 123.437 345.63 119.938 351.63 152.438C357.631 184.938 325.13 173.938 319.13 184.938C313.13 195.937 294.63 167.438 278.63 184.938C262.631 202.437 225.631 173.938 216.131 184.938C206.631 195.937 157.131 161.438 145.131 184.938C133.131 208.437 77.6306 158.438 62.6306 184.938C47.6306 211.437 -7.8694 139.937 19.1306 141.438C46.1306 142.938 30.1306 130.437 30.1306 130.437Z" stroke="white"/>
</g>
<defs>
<filter id="filter0_d_6_37" x="0.499939" y="0.5" width="368.47" height="199.418" filterUnits="userSpaceOnUse" color-interpolation-filters="sRGB">
<feFlood flood-opacity="0" result="BackgroundImageFix"/>
<feColorMatrix in="SourceAlpha" type="matrix" values="0 0 0 0 0 0 0 0 0 0 0 0 0 0 0 0 0 0 127 0" result="hardAlpha"/>
<feOffset dy="4"/>
<feGaussianBlur stdDeviation="2"/>
<feComposite in2="hardAlpha" operator="out"/>
<feColorMatrix type="matrix" values="0 0 0 0 0 0 0 0 0 0 0 0 0 0 0 0 0 0 0.25 0"/>
<feBlend mode="normal" in2="BackgroundImageFix" result="effect1_dropShadow_6_37"/>
<feBlend mode="normal" in="SourceGraphic" in2="effect1_dropShadow_6_37" result="shape"/>
</filter>
</defs>
</svg>
